<?xml version="1.0" encoding="UTF-8" standalone="no"?>
<!-- Generator: Adobe Illustrator 17.1.0, SVG Export Plug-In . SVG Version: 6.00 Build 0)  -->

<svg
   xmlns:dc="http://purl.org/dc/elements/1.1/"
   xmlns:cc="http://creativecommons.org/ns#"
   xmlns:rdf="http://www.w3.org/1999/02/22-rdf-syntax-ns#"
   xmlns:svg="http://www.w3.org/2000/svg"
   xmlns="http://www.w3.org/2000/svg"
   xmlns:sodipodi="http://sodipodi.sourceforge.net/DTD/sodipodi-0.dtd"
   xmlns:inkscape="http://www.inkscape.org/namespaces/inkscape"
   version="1.1"
   id="Capa_1"
   x="0px"
   y="0px"
   viewBox="0 0 231.233 231.233"
   style="enable-background:new 0 0 231.233 231.233;"
   xml:space="preserve"
   sodipodi:docname="exit.svg"
   inkscape:version="0.92.4 (5da689c313, 2019-01-14)"><metadata
   id="metadata86"><rdf:RDF><cc:Work
       rdf:about=""><dc:format>image/svg+xml</dc:format><dc:type
         rdf:resource="http://purl.org/dc/dcmitype/StillImage" /><dc:title /></cc:Work></rdf:RDF></metadata><defs
   id="defs84" /><sodipodi:namedview
   pagecolor="#ffffff"
   bordercolor="#666666"
   borderopacity="1"
   objecttolerance="10"
   gridtolerance="10"
   guidetolerance="10"
   inkscape:pageopacity="0"
   inkscape:pageshadow="2"
   inkscape:window-width="1366"
   inkscape:window-height="705"
   id="namedview82"
   showgrid="false"
   inkscape:zoom="2.3136836"
   inkscape:cx="115.6165"
   inkscape:cy="115.6165"
   inkscape:window-x="-8"
   inkscape:window-y="-8"
   inkscape:window-maximized="1"
   inkscape:current-layer="Capa_1" />

<g
   id="g51">
</g>
<g
   id="g53">
</g>
<g
   id="g55">
</g>
<g
   id="g57">
</g>
<g
   id="g59">
</g>
<g
   id="g61">
</g>
<g
   id="g63">
</g>
<g
   id="g65">
</g>
<g
   id="g67">
</g>
<g
   id="g69">
</g>
<g
   id="g71">
</g>
<g
   id="g73">
</g>
<g
   id="g75">
</g>
<g
   id="g77">
</g>
<g
   id="g79">
</g>
<path
   inkscape:connector-curvature="0"
   id="path4626"
   d="m 101.22485,229.97339 c -0.88665,-0.21642 -2.26317,-1.10785 -3.06486,-1.9848 -1.25628,-1.3742 -1.50036,-2.06011 -1.78454,-5.01467 -0.83507,-8.68218 -2.61358,-13.24217 -7.03904,-18.0477 -5.2943,-5.749 -10.89951,-8.29856 -18.244326,-8.29856 -7.20868,0 -12.65944,2.01062 -18.84322,6.95071 -3.07413,2.45584 -3.69915,2.76808 -5.54363,2.76944 -2.98507,0.002 -4.39558,-1.02638 -12.28739,-8.96018 -9.31275,-9.3623 -10.81179,-11.32002 -10.80845,-14.11575 0.002,-1.92602 0.28161,-2.5068 2.59684,-5.39985 3.69638,-4.61891 4.63723,-6.23305 5.99304,-10.28186 1.08294,-3.23392 1.18138,-4.10561 1.00772,-8.92328 -0.21938,-6.0861 -1.13444,-9.24054 -3.88542,-13.39398 -4.66491,-7.0431 -10.33073,-10.16882 -21.82163,-12.03853 -6.59935,-1.07381 -7.4822,-3.17871 -7.49978,-17.8811 -0.011,-9.20507 0.53128,-14.41186 1.6848,-16.176667 0.99163,-1.517134 2.29915,-1.976786 8.6311,-3.03422 4.40979,-0.736438 6.53096,-1.35968 9.55381,-2.807123 8.63266,-4.133601 14.36222,-13.177924 14.36222,-22.671313 0,-6.046873 -2.1905,-11.641222 -7.09505,-18.120169 -1.61426,-2.13244 -3.0628,-4.397156 -3.21899,-5.032703 -0.56823,-2.312189 1.40673,-5.036621 9.58614,-13.223898 11.43951,-11.450534 13.27436,-12.409817 17.65479,-9.230184 7.97775,5.790824 12.23663,7.743903 18.22818,8.359261 11.561016,1.187367 23.258096,-6.91427 26.456816,-18.324525 0.39272,-1.400883 0.94628,-4.306534 1.23013,-6.4570013 0.65004,-4.924708 1.38031,-6.3484685 3.82754,-7.4622746 1.7458,-0.79456189 3.13914,-0.87964105 14.40587,-0.87964105 11.12509,0 12.67286,0.0919332 14.32102,0.85062875 3.08003,1.4178268 3.49687,2.2135817 4.20146,8.0208086 1.06425,8.7714836 2.91518,12.9216736 8.01354,17.9681266 4.73477,4.686571 10.3287,6.946528 17.19431,6.946528 6.92074,0 11.4995,-1.675043 18.07206,-6.61129 4.88022,-3.665245 6.06323,-4.017065 8.89186,-2.644395 2.5551,1.239943 13.02829,11.265038 17.10627,16.374387 4.40589,5.520198 4.42179,7.26418 0.11181,12.27088 -7.42299,8.622943 -8.84349,20.060742 -3.71128,29.883012 4.00362,7.662348 11.2667,12.374557 21.11085,13.696504 7.1213,0.956305 8.33974,2.231725 9.0816,9.506338 0.5921,5.80592 0.25098,19.83406 -0.55178,22.69199 -0.97911,3.48571 -2.04721,4.12205 -8.16038,4.86174 -7.90652,0.95669 -13.28318,3.38324 -17.90736,8.08179 -4.83099,4.90869 -7.14,10.7242 -7.15369,18.01745 -0.0126,6.68614 1.92913,11.69346 6.89845,17.79022 1.50538,1.84692 2.87402,3.79062 3.04142,4.31935 0.55106,1.7405 -0.22084,3.84734 -2.54659,6.95065 -2.85662,3.81168 -12.37897,13.0623 -16.42613,15.95737 -4.04838,2.89595 -5.22948,2.75905 -10.47677,-1.21443 -4.56927,-3.46007 -8.32132,-5.30739 -12.64445,-6.22548 -8.262,-1.7546 -16.06562,0.31635 -22.14828,5.87776 -5.10106,4.66394 -7.41192,9.53019 -8.67919,18.27671 -1.17687,8.12264 -1.42176,8.23849 -17.63875,8.34493 -6.86022,0.045 -13.19743,-0.0949 -14.08267,-0.31101 z M 128.482,181.1556 c 5.06067,-1.08099 11.50667,-3.44235 17.05952,-6.24943 2.90826,-1.47017 5.35141,-2.86456 5.42925,-3.09865 0.0778,-0.23408 -6.45935,-7.15274 -14.52709,-15.37478 l -14.6686,-14.94918 -3.55151,1.1605 c -23.2038,7.58203 -47.329006,-6.38935 -52.350006,-30.31695 -1.42487,-6.7902 -0.51074,-17.960822 1.66102,-20.297653 0.65136,-0.700877 1.47376,-0.989019 2.82279,-0.989019 1.86392,0 2.1217,0.217297 12.359266,10.417832 l 10.45565,10.41782 5.77652,-0.67738 c 8.14997,-0.95569 10.49593,-1.52294 11.24142,-2.71816 0.77704,-1.24582 2.57647,-12.041498 2.57647,-15.457578 0,-0.323856 -4.41757,-5.193969 -9.81683,-10.822476 C 97.55062,76.571984 92.7648,71.386383 92.31472,70.676938 c -1.54271,-2.431752 0.58238,-5.095115 4.78654,-5.99896 1.2726,-0.273596 5.07681,-0.497446 8.45377,-0.497446 7.54695,0 11.26298,0.856085 18.13098,4.176952 4.32108,2.089368 5.34821,2.841004 9.3498,6.842089 5.16363,5.162982 7.79005,8.966721 9.81336,14.212358 1.9971,5.177632 2.77271,9.386732 2.77271,15.046859 0,5.06242 -0.32752,7.18211 -1.99213,12.89259 l -0.98743,3.38741 4.11839,4.17646 c 10.03945,10.18104 25.19304,24.53487 25.71773,24.36043 1.34133,-0.44594 5.75356,-11.02794 7.57898,-18.17694 0.98961,-3.87565 1.22064,-6.03466 1.41645,-13.23658 0.35968,-13.22995 -1.24862,-21.304947 -6.31055,-31.684291 -3.49659,-7.16965 -7.48924,-12.796985 -12.97625,-18.289026 -7.31022,-7.316925 -15.675,-12.597296 -25.16704,-15.887005 -8.53886,-2.959363 -10.90418,-3.313192 -22.17447,-3.317109 -9.14712,-0.0032 -10.60211,0.105947 -14.55201,1.091419 -13.22688,3.300027 -23.15067,8.84298 -32.369386,18.080009 -14.71811,14.747353 -21.43525,33.593863 -19.43658,54.533933 1.81793,19.04644 12.65308,37.26622 28.707556,48.27298 8.73264,5.98701 18.22398,9.65288 29.33499,11.33015 2.74542,0.41444 18.99263,-0.20551 21.95187,-0.83762 z"
   style="fill:#0000e2;stroke-width:0.4625347" /><rect
   y="-0.76798886"
   x="0"
   height="232.00101"
   width="232"
   id="rect4630"
   style="fill:#0f5bff;fill-opacity:1;stroke-width:1.00869727"
   rx="60"
   ry="60" /><g
   id="g4657"
   transform="matrix(0.31249437,0,0,0.3125,45,36.230561)"
   style="fill:#fffaf0"><path
     id="path4634"
     d="M 496,240.00781 H 293.33203 c -8.83203,0 -16,-7.16797 -16,-16 0,-8.83203 7.16797,-16 16,-16 H 496 c 8.83203,0 16,7.16797 16,16 0,8.83203 -7.16797,16 -16,16 z m 0,0"
     inkscape:connector-curvature="0"
     style="fill:#fffaf0" /><path
     id="path4636"
     d="m 416,320.00781 c -4.09766,0 -8.19141,-1.55859 -11.30859,-4.6914 -6.25,-6.25391 -6.25,-16.38672 0,-22.63672 l 68.69531,-68.69141 -68.69531,-68.69531 c -6.25,-6.25 -6.25,-16.38281 0,-22.63281 6.2539,-6.25391 16.38671,-6.25391 22.63671,0 l 80,80 c 6.25,6.25 6.25,16.38281 0,22.63281 l -80,80 c -3.13671,3.15625 -7.23046,4.71484 -11.32812,4.71484 z m 0,0"
     inkscape:connector-curvature="0"
     style="fill:#fffaf0" /><path
     id="path4638"
     d="m 170.66797,512.00781 c -4.56641,0 -8.89844,-0.64062 -13.22656,-1.98437 L 29.054688,467.25 C 11.585938,461.14844 0,444.87109 0,426.67578 V 42.675781 C 0,19.144531 19.136719,0.0078125 42.667969,0.0078125 c 4.5625,0 8.894531,0.6406255 13.226562,1.9843755 L 184.27734,44.765625 c 17.47266,6.101563 29.05469,22.378906 29.05469,40.574219 V 469.33984 c 0,23.53125 -19.13281,42.66797 -42.66406,42.66797 z M 42.667969,32.007812 C 36.800781,32.007812 32,36.808594 32,42.675781 V 426.67578 c 0,4.54297 3.050781,8.76563 7.402344,10.28125 L 167.1875,479.53906 c 0.91797,0.29688 2.11328,0.46875 3.48047,0.46875 5.86719,0 10.66406,-4.80078 10.66406,-10.66797 V 85.339844 c 0,-4.542969 -3.05078,-8.765625 -7.40234,-10.28125 L 46.144531,32.476562 c -0.917969,-0.296874 -2.113281,-0.46875 -3.476562,-0.46875 z m 0,0"
     inkscape:connector-curvature="0"
     style="fill:#fffaf0" /><path
     id="path4640"
     d="m 325.33203,170.67578 c -8.83203,0 -16,-7.16797 -16,-16 V 58.675781 c 0,-14.699219 -11.96484,-26.667969 -26.66406,-26.667969 H 42.667969 c -8.832031,0 -16,-7.167968 -16,-16 0,-8.832031 7.167969,-15.9999995 16,-15.9999995 H 282.66797 c 32.36328,0 58.66406,26.3046875 58.66406,58.6679685 v 95.999999 c 0,8.83203 -7.16797,16 -16,16 z m 0,0"
     inkscape:connector-curvature="0"
     style="fill:#fffaf0" /><path
     id="path4642"
     d="m 282.66797,448.00781 h -85.33594 c -8.83203,0 -16,-7.16797 -16,-16 0,-8.83203 7.16797,-16 16,-16 h 85.33594 c 14.69922,0 26.66406,-11.96875 26.66406,-26.66797 v -96 c 0,-8.83203 7.16797,-16 16,-16 8.83203,0 16,7.16797 16,16 v 96 c 0,32.36328 -26.30078,58.66797 -58.66406,58.66797 z m 0,0"
     inkscape:connector-curvature="0"
     style="fill:#fffaf0" /></g></svg>