<?xml version="1.0" encoding="UTF-8" standalone="no"?>
<!-- Generator: Adobe Illustrator 17.1.0, SVG Export Plug-In . SVG Version: 6.00 Build 0)  -->

<svg
   xmlns:dc="http://purl.org/dc/elements/1.1/"
   xmlns:cc="http://creativecommons.org/ns#"
   xmlns:rdf="http://www.w3.org/1999/02/22-rdf-syntax-ns#"
   xmlns:svg="http://www.w3.org/2000/svg"
   xmlns="http://www.w3.org/2000/svg"
   xmlns:sodipodi="http://sodipodi.sourceforge.net/DTD/sodipodi-0.dtd"
   xmlns:inkscape="http://www.inkscape.org/namespaces/inkscape"
   version="1.1"
   id="Capa_1"
   x="0px"
   y="0px"
   viewBox="0 0 231.233 231.233"
   style="enable-background:new 0 0 231.233 231.233;"
   xml:space="preserve"
   sodipodi:docname="settings.svg"
   inkscape:version="0.92.4 (5da689c313, 2019-01-14)"><metadata
   id="metadata86"><rdf:RDF><cc:Work
       rdf:about=""><dc:format>image/svg+xml</dc:format><dc:type
         rdf:resource="http://purl.org/dc/dcmitype/StillImage" /></cc:Work></rdf:RDF></metadata><defs
   id="defs84" /><sodipodi:namedview
   pagecolor="#ffffff"
   bordercolor="#666666"
   borderopacity="1"
   objecttolerance="10"
   gridtolerance="10"
   guidetolerance="10"
   inkscape:pageopacity="0"
   inkscape:pageshadow="2"
   inkscape:window-width="1366"
   inkscape:window-height="705"
   id="namedview82"
   showgrid="false"
   inkscape:zoom="2.1646365"
   inkscape:cx="40.546159"
   inkscape:cy="116.1073"
   inkscape:window-x="-8"
   inkscape:window-y="-8"
   inkscape:window-maximized="1"
   inkscape:current-layer="Capa_1" />

<g
   id="g51">
</g>
<g
   id="g53">
</g>
<g
   id="g55">
</g>
<g
   id="g57">
</g>
<g
   id="g59">
</g>
<g
   id="g61">
</g>
<g
   id="g63">
</g>
<g
   id="g65">
</g>
<g
   id="g67">
</g>
<g
   id="g69">
</g>
<g
   id="g71">
</g>
<g
   id="g73">
</g>
<g
   id="g75">
</g>
<g
   id="g77">
</g>
<g
   id="g79">
</g>
<path
   inkscape:connector-curvature="0"
   id="path4626"
   d="m 101.22485,229.97339 c -0.88665,-0.21642 -2.263166,-1.10785 -3.064856,-1.9848 -1.25628,-1.3742 -1.50036,-2.06011 -1.78454,-5.01467 -0.83507,-8.68218 -2.61358,-13.24217 -7.03904,-18.0477 -5.2943,-5.749 -10.89951,-8.29856 -18.24433,-8.29856 -7.20868,0 -12.65944,2.01062 -18.84322,6.95071 -3.07413,2.45584 -3.69915,2.76808 -5.54363,2.76944 -2.98507,0.002 -4.39558,-1.02638 -12.28739,-8.96018 -9.31275,-9.3623 -10.81179,-11.32002 -10.80845,-14.11575 0.002,-1.92602 0.28161,-2.5068 2.59684,-5.39985 3.69638,-4.61891 4.63723,-6.23305 5.99304,-10.28186 1.08294,-3.23392 1.18138,-4.10561 1.00772,-8.92328 -0.21938,-6.0861 -1.13444,-9.24054 -3.88542,-13.39398 -4.66491,-7.0431 -10.33073,-10.16882 -21.82163,-12.03853 C 0.90059396,132.16057 0.01774396,130.05567 1.6396494e-4,115.35328 -0.01083604,106.14821 0.53144396,100.94142 1.684964,99.176613 c 0.99163,-1.517134 2.29915,-1.976786 8.6311,-3.03422 4.40979,-0.736438 6.53096,-1.35968 9.55381,-2.807123 8.63266,-4.133601 14.36222,-13.177924 14.36222,-22.671313 0,-6.046873 -2.1905,-11.641222 -7.09505,-18.120169 -1.61426,-2.13244 -3.0628,-4.397156 -3.21899,-5.032703 -0.56823,-2.312189 1.40673,-5.036621 9.58614,-13.223898 11.43951,-11.450534 13.27436,-12.409817 17.65479,-9.230184 7.97775,5.790824 12.23663,7.743903 18.22818,8.359261 11.56102,1.187367 23.2581,-6.91427 26.45682,-18.324525 0.39272,-1.400883 0.94628,-4.306534 1.23013,-6.4570013 0.65004,-4.924708 1.38031,-6.3484685 3.827536,-7.4622746 1.7458,-0.79456189 3.13914,-0.87964105 14.40587,-0.87964105 11.12509,0 12.67286,0.0919332 14.32102,0.85062875 3.08003,1.4178268 3.49687,2.2135817 4.20146,8.0208086 1.06425,8.7714836 2.91518,12.9216736 8.01354,17.9681266 4.73477,4.686571 10.3287,6.946528 17.19431,6.946528 6.92074,0 11.4995,-1.675043 18.07206,-6.61129 4.88022,-3.665245 6.06323,-4.017065 8.89186,-2.644395 2.5551,1.239943 13.02829,11.265038 17.10627,16.374387 4.40589,5.520198 4.42179,7.26418 0.11181,12.27088 -7.42299,8.622943 -8.84349,20.060742 -3.71128,29.883012 4.00362,7.662348 11.2667,12.374557 21.11085,13.696504 7.1213,0.956305 8.33974,2.231725 9.0816,9.506338 0.5921,5.80592 0.25098,19.83406 -0.55178,22.69199 -0.97911,3.48571 -2.04721,4.12205 -8.16038,4.86174 -7.90652,0.95669 -13.28318,3.38324 -17.90736,8.08179 -4.83099,4.90869 -7.14,10.7242 -7.15369,18.01745 -0.0126,6.68614 1.92913,11.69346 6.89845,17.79022 1.50538,1.84692 2.87402,3.79062 3.04142,4.31935 0.55106,1.7405 -0.22084,3.84734 -2.54659,6.95065 -2.85662,3.81168 -12.37897,13.0623 -16.42613,15.95737 -4.04838,2.89595 -5.22948,2.75905 -10.47677,-1.21443 -4.56927,-3.46007 -8.32132,-5.30739 -12.64445,-6.22548 -8.262,-1.7546 -16.06562,0.31635 -22.14828,5.87776 -5.10106,4.66394 -7.41192,9.53019 -8.67919,18.27671 -1.17687,8.12264 -1.42176,8.23849 -17.63875,8.34493 -6.86022,0.045 -13.19743,-0.0949 -14.08267,-0.31101 z M 128.482,181.1556 c 5.06067,-1.08099 11.50667,-3.44235 17.05952,-6.24943 2.90826,-1.47017 5.35141,-2.86456 5.42925,-3.09865 0.0778,-0.23408 -6.45935,-7.15274 -14.52709,-15.37478 l -14.6686,-14.94918 -3.55151,1.1605 c -23.203796,7.58203 -47.329006,-6.38935 -52.350006,-30.31695 -1.42487,-6.7902 -0.51074,-17.960822 1.66102,-20.297653 0.65136,-0.700877 1.47376,-0.989019 2.82279,-0.989019 1.86392,0 2.1217,0.217297 12.35927,10.417832 l 10.45565,10.41782 5.77652,-0.67738 c 8.149966,-0.95569 10.495926,-1.52294 11.241416,-2.71816 0.77704,-1.24582 2.57647,-12.041498 2.57647,-15.457578 0,-0.323856 -4.41757,-5.193969 -9.81683,-10.822476 -5.399246,-5.628512 -10.185066,-10.814113 -10.635146,-11.523558 -1.54271,-2.431752 0.58238,-5.095115 4.78654,-5.99896 1.2726,-0.273596 5.076806,-0.497446 8.453766,-0.497446 7.54695,0 11.26298,0.856085 18.13098,4.176952 4.32108,2.089368 5.34821,2.841004 9.3498,6.842089 5.16363,5.162982 7.79005,8.966721 9.81336,14.212358 1.9971,5.177632 2.77271,9.386732 2.77271,15.046859 0,5.06242 -0.32752,7.18211 -1.99213,12.89259 l -0.98743,3.38741 4.11839,4.17646 c 10.03945,10.18104 25.19304,24.53487 25.71773,24.36043 1.34133,-0.44594 5.75356,-11.02794 7.57898,-18.17694 0.98961,-3.87565 1.22064,-6.03466 1.41645,-13.23658 0.35968,-13.22995 -1.24862,-21.304947 -6.31055,-31.684291 -3.49659,-7.16965 -7.48924,-12.796985 -12.97625,-18.289026 -7.31022,-7.316925 -15.675,-12.597296 -25.16704,-15.887005 -8.53886,-2.959363 -10.90418,-3.313192 -22.17447,-3.317109 -9.14712,-0.0032 -10.60211,0.105947 -14.55201,1.091419 -13.226876,3.300027 -23.150666,8.84298 -32.369386,18.080009 -14.71811,14.747353 -21.43525,33.593863 -19.43658,54.533933 1.81793,19.04644 12.65308,37.26622 28.70756,48.27298 8.73264,5.98701 18.22398,9.65288 29.334986,11.33015 2.74542,0.41444 18.99263,-0.20551 21.95187,-0.83762 z"
   style="fill:#0000e2;stroke-width:0.4625347" /><rect
   y="-0.76798886"
   x="0"
   height="232.00101"
   width="232"
   id="rect4630"
   style="fill:#0f5bff;fill-opacity:1;stroke-width:1.00869727"
   rx="60"
   ry="60" /><path
   style="fill:#fffff0;fill-opacity:1;stroke-width:0.36198375"
   d="m 104.21946,205.98305 c -0.6939,-0.16937 -1.77117,-0.86701 -2.39858,-1.55333 -0.98318,-1.07545 -1.1742,-1.61225 -1.3966,-3.92452 -0.653533,-6.79474 -2.045411,-10.36344 -5.508815,-14.12429 -4.143366,-4.49921 -8.530053,-6.49452 -14.278174,-6.49452 -5.641576,0 -9.90739,1.57352 -14.74687,5.43968 -2.405841,1.92197 -2.894988,2.16633 -4.338493,2.1674 -2.336143,0.002 -3.44002,-0.80326 -9.616221,-7.01232 -7.28824,-7.32702 -8.461402,-8.85914 -8.458788,-11.04711 0.0015,-1.50732 0.22039,-1.96184 2.03231,-4.22598 2.892819,-3.6148 3.629137,-4.87804 4.690206,-8.04666 0.847518,-2.5309 0.924558,-3.21309 0.78865,-6.98344 -0.171688,-4.76304 -0.887822,-7.23173 -3.040764,-10.48225 -3.650799,-5.51199 -8.08492,-7.95821 -17.077799,-9.42146 -5.16471,-0.84037 -5.855636,-2.48769 -5.869394,-13.99391 -0.0086,-7.20397 0.415784,-11.27884 1.318539,-12.66001 0.776058,-1.18731 1.799335,-1.54703 6.754775,-2.3746 3.451141,-0.57634 5.111186,-1.0641 7.476896,-2.196873 6.755996,-3.235 11.24,-10.313169 11.24,-17.742774 0,-4.732336 -1.714305,-9.110523 -5.552649,-14.181004 -1.263334,-1.668866 -2.396974,-3.441253 -2.51921,-3.938637 -0.444702,-1.809539 1.10092,-3.941705 7.502198,-10.349139 8.952661,-8.961289 10.388631,-9.712032 13.816795,-7.223624 6.243457,4.53195 9.576494,6.060448 14.265534,6.542032 9.047756,0.929243 18.201994,-5.411169 20.705344,-14.340934 0.30734,-1.096344 0.74056,-3.370332 0.96271,-5.053307 0.50872,-3.85412 1.08024,-4.968368 2.99546,-5.840042 1.36628,-0.621831 2.45672,-0.688414 11.27416,-0.688414 8.70659,0 9.9179,0.07194 11.20776,0.665709 2.41046,1.109603 2.73668,1.732369 3.28809,6.277155 0.8329,6.864641 2.28145,10.112616 6.27148,14.062015 3.70547,3.667751 8.08333,5.436414 13.45641,5.436414 5.41624,0 8.99962,-1.310904 14.14336,-5.174054 3.8193,-2.868453 4.74513,-3.143791 6.95884,-2.069527 1.99965,0.97039 10.19606,8.816117 13.38752,12.814739 3.44809,4.320156 3.46053,5.685011 0.0875,9.603298 -5.8093,6.748391 -6.921,15.699713 -2.90448,23.386714 3.13327,5.99661 8.81742,9.684433 16.52154,10.719013 5.57319,0.74841 6.52675,1.74656 7.10734,7.43973 0.46338,4.54377 0.19641,15.52232 -0.43183,17.75896 -0.76626,2.72795 -1.60216,3.22595 -6.38638,3.80484 -6.18772,0.74871 -10.39554,2.64775 -14.01446,6.32488 -3.78078,3.84157 -5.58783,8.39285 -5.59854,14.10061 -0.01,5.23263 1.50975,9.1514 5.39878,13.92278 1.17813,1.44542 2.24924,2.96657 2.38025,3.38036 0.43126,1.36214 -0.17284,3.01097 -1.99299,5.43964 -2.23562,2.98306 -9.68789,10.22268 -12.85523,12.48839 -3.1683,2.26639 -4.09264,2.15924 -8.19922,-0.95043 -3.57594,-2.70789 -6.51234,-4.15361 -9.89565,-4.87212 -6.46592,-1.37316 -12.57309,0.24758 -17.33344,4.59999 -3.99214,3.65004 -5.80063,7.45841 -6.79242,14.30352 -0.92102,6.35684 -1.11268,6.4475 -13.80423,6.53081 -5.36887,0.0351 -10.32843,-0.0743 -11.02123,-0.2434 z m 21.33169,-38.20523 c 3.96052,-0.84599 9.00522,-2.69402 13.35093,-4.89085 2.27603,-1.15057 4.18806,-2.24184 4.24897,-2.42504 0.0608,-0.18319 -5.05513,-5.5978 -11.36902,-12.03244 l -11.47977,-11.69935 -2.77945,0.90822 c -18.159497,5.93376 -37.040099,-5.00038 -40.969578,-23.72632 -1.115117,-5.31407 -0.39971,-14.056303 1.299928,-15.885133 0.50976,-0.54851 1.153378,-0.77402 2.209141,-0.77402 1.45872,0 1.660461,0.17007 9.672474,8.153103 l 8.182683,8.15308 4.520762,-0.53014 c 6.37823,-0.74792 8.2142,-1.19185 8.79762,-2.12724 0.60813,-0.97499 2.01637,-9.42379 2.01637,-12.097243 0,-0.25346 -3.45722,-4.06485 -7.68273,-8.46976 -4.2255,-4.40493 -7.970927,-8.463227 -8.323164,-9.018445 -1.207338,-1.903111 0.455777,-3.987482 3.745994,-4.694839 0.99594,-0.214119 3.97315,-0.389306 6.61598,-0.389306 5.90632,0 8.81452,0.66998 14.18947,3.268919 3.38171,1.635158 4.18556,2.223395 7.31723,5.354679 4.04111,4.040599 6.09657,7.017442 7.68003,11.122722 1.56295,4.052063 2.16995,7.346133 2.16995,11.775803 0,3.9619 -0.25632,5.62079 -1.55906,10.08986 l -0.77277,2.65102 3.22309,3.26853 c 7.85696,7.96777 19.71629,19.2012 20.12692,19.06468 1.04974,-0.34899 4.50279,-8.63056 5.93137,-14.22543 0.77448,-3.03312 0.95529,-4.72277 1.10853,-10.35906 0.28149,-10.35389 -0.97718,-16.67344 -4.93869,-24.796413 -2.73646,-5.611032 -5.86115,-10.015034 -10.15532,-14.313154 -5.72105,-5.726289 -12.2674,-9.858753 -19.69596,-12.433309 -6.68258,-2.316024 -8.5337,-2.592933 -17.35393,-2.595998 -7.15862,-0.0025 -8.29731,0.08291 -11.38854,0.854154 C 93.139146,67.541729 85.372701,71.879694 78.158049,79.108674 66.639527,90.650077 61.382633,105.39953 62.94681,121.78741 c 1.422728,14.90592 9.902413,29.16488 22.46679,37.77886 6.834241,4.68549 14.262247,7.55443 22.95782,8.86708 2.14859,0.32434 14.8638,-0.16084 17.17973,-0.65553 z"
   id="path4632"
   inkscape:connector-curvature="0" /></svg>